# xmcd
#
# Track frame offsets: 
#        150
#        10302
#        19639
#        29258
#        42021
#        53409
#        64471
#        76086
#        85669
#        98013
#        111174
#        120809
#        134797
#        141849
#        150955
#        159358
#        170002
#        182648
#        190478
#        201058
#        213267
#        221961
#        230730
#        243884
#        255665
#        269912
#        278506
#        291508
#        305349
#        317282
#
# Disc length: 4363 seconds
#
# Revision: 2
# Processed by: cddbd v1.5.2PL0 Copyright (c) Steve Scherf et al.
# Submitted via: ExactAudioCopy v0.99pb5
#
DISCID=a011091e
DTITLE=Les Paul and Mary Ford - Ultimate Collection
DYEAR=2005
DGENRE=Blues
TTITLE0=Blues Stay Away From Me
TTITLE1=Bye Bye Blues
TTITLE2=Chicken Reel
TTITLE3=Cryin'
TTITLE4=Deep In The Blues
TTITLE5=Don't Cry, Baby
TTITLE6=Frankie And Johnny
TTITLE7=How High The Moon
TTITLE8=I Wish I'd Never Seen Sunshine
TTITLE9=I'm Forever Blowing Bubbles
TTITLE10=In The Good Old Summertime
TTITLE11=It's A Lonesome Old Town
TTITLE12=Jazz Me Blues
TTITLE13=Johnny Is The Boy For Me
TTITLE14=Just One More Chance
TTITLE15=La Rosita
TTITLE16=The Lonesome Road
TTITLE17=Mammy's Boogie
TTITLE18=Mockin' Bird Hill
TTITLE19=Moon Over Manakoora
TTITLE20=Put That Ring On My Finger
TTITLE21=Silent Night
TTITLE22=Smoke Rings
TTITLE23=St. Louis Blues
TTITLE24=Tennessee Waltz
TTITLE25=Three Little Words
TTITLE26=Vaya Con Dios
TTITLE27=Wabash Blues
TTITLE28=Walkin' And Whistlin' Blues
TTITLE29=/the World Is Waiting For The Sunrise
EXTD=Import Deltamusic 2005 UK
EXTT0=
EXTT1=
EXTT2=
EXTT3=
EXTT4=
EXTT5=
EXTT6=
EXTT7=
EXTT8=
EXTT9=
EXTT10=
EXTT11=
EXTT12=
EXTT13=
EXTT14=
EXTT15=
EXTT16=
EXTT17=
EXTT18=
EXTT19=
EXTT20=
EXTT21=
EXTT22=
EXTT23=
EXTT24=
EXTT25=
EXTT26=
EXTT27=
EXTT28=
EXTT29=
PLAYORDER=
